<?xml version="1.0" encoding="UTF-8" standalone="no"?>
<svg
   width="1024"
   height="1024"
   fill="#000000"
   viewBox="0 0 8192 8192"
   version="1.1"
   id="svg1"
   sodipodi:docname="cube.svg"
   inkscape:version="1.4 (e7c3feb1, 2024-10-09)"
   xmlns:inkscape="http://www.inkscape.org/namespaces/inkscape"
   xmlns:sodipodi="http://sodipodi.sourceforge.net/DTD/sodipodi-0.dtd"
   xmlns:xlink="http://www.w3.org/1999/xlink"
   xmlns="http://www.w3.org/2000/svg"
   xmlns:svg="http://www.w3.org/2000/svg">
  <defs
     id="defs1">
    <inkscape:path-effect
       effect="fillet_chamfer"
       id="path-effect21"
       is_visible="true"
       lpeversion="1"
       nodesatellites_param="F,0,0,1,0,240,0,1 @ F,0,0,1,0,240,0,1 @ F,0,0,1,0,240,0,1 @ F,0,0,1,0,240,0,1"
       radius="30"
       unit="px"
       method="auto"
       mode="F"
       chamfer_steps="1"
       flexible="false"
       use_knot_distance="true"
       apply_no_radius="true"
       apply_with_radius="true"
       only_selected="false"
       hide_knots="false" />
    <inkscape:path-effect
       effect="fillet_chamfer"
       id="path-effect20"
       is_visible="true"
       lpeversion="1"
       nodesatellites_param="F,0,0,1,0,240,0,1 @ F,0,0,1,0,240,0,1 @ F,0,0,1,0,240,0,1 @ F,0,0,1,0,240,0,1"
       radius="30"
       unit="px"
       method="auto"
       mode="F"
       chamfer_steps="1"
       flexible="false"
       use_knot_distance="true"
       apply_no_radius="true"
       apply_with_radius="true"
       only_selected="false"
       hide_knots="false" />
    <inkscape:path-effect
       effect="fillet_chamfer"
       id="path-effect19"
       is_visible="true"
       lpeversion="1"
       nodesatellites_param="F,0,0,1,0,240,0,1 @ F,0,0,1,0,240,0,1 @ F,0,0,1,0,240,0,1 @ F,0,0,1,0,240,0,1"
       radius="30"
       unit="px"
       method="auto"
       mode="F"
       chamfer_steps="1"
       flexible="false"
       use_knot_distance="true"
       apply_no_radius="true"
       apply_with_radius="true"
       only_selected="false"
       hide_knots="false" />
    <inkscape:path-effect
       effect="fillet_chamfer"
       id="path-effect15"
       is_visible="true"
       lpeversion="1"
       nodesatellites_param="F,0,0,1,0,14320,0,1 @ F,0,0,1,0,14320,0,1 @ F,0,0,1,0,14320,0,1 @ F,0,0,1,0,14320,0,1 @ F,0,0,1,0,14320,0,1 @ F,0,0,1,0,14320,0,1 @ F,0,0,1,0,14320,0,1 @ F,0,0,1,0,14320,0,1 @ F,0,0,1,0,14320,0,1 @ F,0,0,1,0,14320,0,1 @ F,0,0,1,0,14320,0,1 @ F,0,0,1,0,14320,0,1 @ F,0,0,1,0,14320,0,1 @ F,0,0,1,0,14320,0,1 @ F,0,0,1,0,14320,0,1 @ F,0,0,1,0,14320,0,1 @ F,0,0,1,0,14320,0,1 @ F,0,0,1,0,14320,0,1 @ F,0,0,1,0,14320,0,1 @ F,0,0,1,0,14320,0,1 | F,0,0,1,0,14320,0,1 @ F,0,0,1,0,14320,0,1 @ F,0,0,1,0,14320,0,1 @ F,0,0,1,0,14320,0,1 | F,0,0,1,0,14320,0,1 @ F,0,0,1,0,14320,0,1 @ F,0,0,1,0,14320,0,1 @ F,0,0,1,0,14320,0,1 | F,0,0,1,0,14320,0,1 @ F,0,0,1,0,14320,0,1 @ F,0,0,1,0,14320,0,1 @ F,0,0,1,0,14320,0,1"
       radius="1790"
       unit="px"
       method="auto"
       mode="F"
       chamfer_steps="1"
       flexible="false"
       use_knot_distance="true"
       apply_no_radius="true"
       apply_with_radius="true"
       only_selected="false"
       hide_knots="false" />
    <inkscape:path-effect
       effect="fillet_chamfer"
       id="path-effect13"
       is_visible="true"
       lpeversion="1"
       nodesatellites_param="F,0,0,1,0,16,0,1 @ F,0,0,1,0,16,0,1 @ F,0,0,1,0,16,0,1 @ F,0,0,1,0,16,0,1 @ F,0,0,1,0,16,0,1 @ F,0,0,1,0,16,0,1 @ F,0,0,1,0,16,0,1 @ F,0,0,1,0,16,0,1"
       radius="2"
       unit="px"
       method="auto"
       mode="F"
       chamfer_steps="1"
       flexible="false"
       use_knot_distance="true"
       apply_no_radius="true"
       apply_with_radius="true"
       only_selected="false"
       hide_knots="false" />
    <inkscape:path-effect
       effect="fillet_chamfer"
       id="path-effect11"
       is_visible="true"
       lpeversion="1"
       nodesatellites_param="F,0,0,1,0,16,0,1 @ F,0,0,1,0,16,0,1 @ F,0,0,1,0,16,0,1 @ F,0,0,1,0,16,0,1 @ F,0,0,1,0,16,0,1 @ F,0,0,1,0,16,0,1 @ F,0,0,1,0,16,0,1 @ F,0,0,1,0,16,0,1"
       radius="2"
       unit="px"
       method="auto"
       mode="F"
       chamfer_steps="1"
       flexible="false"
       use_knot_distance="true"
       apply_no_radius="true"
       apply_with_radius="true"
       only_selected="false"
       hide_knots="false" />
    <linearGradient
       id="linearGradient11"
       inkscape:collect="always">
      <stop
         style="stop-color:#ff0000;stop-opacity:1;"
         offset="0"
         id="stop11" />
      <stop
         style="stop-color:#b11818;stop-opacity:1;"
         offset="1"
         id="stop12" />
    </linearGradient>
    <linearGradient
       id="linearGradient10"
       inkscape:collect="always">
      <stop
         style="stop-color:#484848;stop-opacity:1;"
         offset="0"
         id="stop9" />
      <stop
         style="stop-color:#272727;stop-opacity:1;"
         offset="1"
         id="stop10" />
    </linearGradient>
    <inkscape:path-effect
       effect="fillet_chamfer"
       id="path-effect9"
       is_visible="true"
       lpeversion="1"
       nodesatellites_param="F,0,0,1,0,16,0,1 @ F,0,0,1,0,16,0,1 @ F,0,0,1,0,16,0,1 @ F,0,0,1,0,16,0,1 @ F,0,0,1,0,16,0,1 @ F,0,0,1,0,16,0,1 @ F,0,0,1,0,16,0,1 @ F,0,0,1,0,16,0,1"
       radius="2"
       unit="px"
       method="auto"
       mode="F"
       chamfer_steps="1"
       flexible="false"
       use_knot_distance="true"
       apply_no_radius="true"
       apply_with_radius="true"
       only_selected="false"
       hide_knots="false" />
    <linearGradient
       id="linearGradient7"
       inkscape:collect="always">
      <stop
         style="stop-color:#161616;stop-opacity:1;"
         offset="0"
         id="stop7" />
      <stop
         style="stop-color:#272727;stop-opacity:1;"
         offset="1"
         id="stop8" />
    </linearGradient>
    <inkscape:path-effect
       effect="fillet_chamfer"
       id="path-effect7"
       is_visible="true"
       lpeversion="1"
       nodesatellites_param="F,0,0,1,0,16,0,1 @ F,0,0,1,0,16,0,1 @ F,0,0,1,0,16,0,1 @ F,0,0,1,0,16,0,1 @ F,0,0,1,0,16,0,1 @ F,0,0,1,0,16,0,1 @ F,0,0,1,0,16,0,1 @ F,0,0,1,0,16,0,1"
       radius="2"
       unit="px"
       method="auto"
       mode="F"
       chamfer_steps="1"
       flexible="false"
       use_knot_distance="true"
       apply_no_radius="true"
       apply_with_radius="true"
       only_selected="false"
       hide_knots="false" />
    <inkscape:path-effect
       effect="fillet_chamfer"
       id="path-effect5"
       is_visible="true"
       lpeversion="1"
       nodesatellites_param="F,0,0,1,0,336,0,2 @ F,0,0,1,0,336,0,2 @ F,0,0,1,0,336,0,2 @ F,0,0,1,0,336,0,2"
       radius="42"
       unit="px"
       method="arc"
       mode="F"
       chamfer_steps="2"
       flexible="false"
       use_knot_distance="true"
       apply_no_radius="true"
       apply_with_radius="true"
       only_selected="false"
       hide_knots="false" />
    <inkscape:path-effect
       effect="fillet_chamfer"
       id="path-effect4"
       is_visible="true"
       lpeversion="1"
       nodesatellites_param="F,0,0,1,0,50.4,0,1 @ F,0,0,1,0,50.4,0,1 @ F,0,0,1,0,50.4,0,1 @ F,0,0,1,0,50.4,0,1"
       radius="6.3"
       unit="px"
       method="auto"
       mode="F"
       chamfer_steps="1"
       flexible="false"
       use_knot_distance="true"
       apply_no_radius="true"
       apply_with_radius="true"
       only_selected="false"
       hide_knots="false" />
    <inkscape:path-effect
       effect="fillet_chamfer"
       id="path-effect3"
       is_visible="true"
       lpeversion="1"
       nodesatellites_param="F,0,0,1,0,32,0,1 @ F,0,0,1,0,32,0,1 @ F,0,0,1,0,32,0,1 @ F,0,0,1,0,32,0,1"
       radius="4"
       unit="px"
       method="auto"
       mode="F"
       chamfer_steps="1"
       flexible="false"
       use_knot_distance="true"
       apply_no_radius="true"
       apply_with_radius="true"
       only_selected="false"
       hide_knots="false" />
    <inkscape:path-effect
       effect="fillet_chamfer"
       id="path-effect2"
       is_visible="true"
       lpeversion="1"
       nodesatellites_param="F,0,0,1,0,64,0,1 @ F,0,0,1,0,64,0,1 @ F,0,0,1,0,64,0,1 @ F,0,0,1,0,64,0,1 @ F,0,0,1,0,64,0,1 @ F,0,0,1,0,64,0,1 @ F,0,0,1,0,64,0,1 @ F,0,0,1,0,64,0,1"
       radius="8"
       unit="px"
       method="auto"
       mode="F"
       chamfer_steps="1"
       flexible="false"
       use_knot_distance="true"
       apply_no_radius="true"
       apply_with_radius="true"
       only_selected="false"
       hide_knots="false" />
    <linearGradient
       inkscape:collect="always"
       xlink:href="#linearGradient7"
       id="linearGradient8"
       x1="618.87848"
       y1="8.0130367"
       x2="618.87848"
       y2="130.51132"
       gradientUnits="userSpaceOnUse" />
    <linearGradient
       inkscape:collect="always"
       xlink:href="#linearGradient10"
       id="linearGradient9"
       gradientUnits="userSpaceOnUse"
       x1="618.87848"
       y1="8.0130367"
       x2="618.87848"
       y2="130.51132" />
    <filter
       inkscape:collect="always"
       style="color-interpolation-filters:sRGB"
       id="filter10"
       x="-0.16916593"
       y="-0.16959747"
       width="1.3383319"
       height="1.3391949">
      <feGaussianBlur
         inkscape:collect="always"
         stdDeviation="8.6567473"
         id="feGaussianBlur10" />
    </filter>
    <clipPath
       clipPathUnits="userSpaceOnUse"
       id="clipPath15">
      <path
         d="m 6137.1726,2766.8129 -1877.3333,-1027.2 v 0 a 338.77333,338.77333 0 0 0 -327.68,0 L 2054.826,2767.2395 a 341.33333,341.33333 0 0 0 -177.4933,298.6667 v 2040.32 a 341.33333,341.33333 0 0 0 177.4933,298.6666 l 1877.3333,1027.6267 a 338.77333,338.77333 0 0 0 327.68,0 L 6137.1726,5404.8928 a 341.33333,341.33333 0 0 0 177.4933,-298.6666 V 3066.1195 A 341.33333,341.33333 0 0 0 6137.1726,2766.8129 Z M 4095.9993,2038.2795 v 0 l 1713.92,938.6667 -1713.92,938.6666 -1713.92,-938.6666 z M 2218.666,3275.6128 3925.3326,4209.5862 V 6039.7728 L 2218.666,5106.4395 Z m 2048,2764.16 V 4210.4395 l 1706.6666,-934.8267 v 1829.9734 z"
         id="path16"
         style="fill:url(#linearGradient16);fill-opacity:1;stroke-width:1" />
    </clipPath>
    <linearGradient
       inkscape:collect="always"
       xlink:href="#linearGradient11"
       id="linearGradient16"
       gradientUnits="userSpaceOnUse"
       gradientTransform="matrix(21.333333,0,0,21.333333,-6.2876479e-4,-9.9337664)"
       x1="192"
       y1="80.02935"
       x2="192"
       y2="303.97064" />
    <filter
       inkscape:collect="always"
       style="color-interpolation-filters:sRGB"
       id="filter21"
       x="-0.026398881"
       y="-0.024621409"
       width="1.0527978"
       height="1.0492428">
      <feGaussianBlur
         inkscape:collect="always"
         stdDeviation="51.623907"
         id="feGaussianBlur21" />
    </filter>
    <filter
       inkscape:collect="always"
       style="color-interpolation-filters:sRGB"
       id="filter24"
       x="-0.073330225"
       y="-0.068392801"
       width="1.1466605"
       height="1.1367856">
      <feGaussianBlur
         inkscape:collect="always"
         stdDeviation="143.39974"
         id="feGaussianBlur24" />
    </filter>
    <clipPath
       clipPathUnits="userSpaceOnUse"
       id="clipPath24">
      <path
         id="path24"
         style="baseline-shift:baseline;display:inline;overflow:visible;opacity:1;vector-effect:none;fill:#ed0c37;fill-opacity:1;stroke-width:1;enable-background:accumulate;stop-color:#000000;stop-opacity:1"
         d="m 4096,1569.4062 c -11.2169,-0.016 -22.4345,0.3792 -33.625,1.1876 -67.1417,4.8505 -133.1887,24.4594 -192.1094,57.0156 L 1993.375,2654.9844 c -146.5393,80.189 -243.6359,243.5801 -244.0156,410.625 a 127.9863,127.9863 0 0 0 0,0.2968 v 2040.3282 a 127.9863,127.9863 0 0 0 0,0.2808 c 0.38,167.0531 97.4955,330.4557 244.0468,410.6406 l 1876.8594,1027.3754 c 137.4827,75.9652 313.9861,75.9652 451.4688,0 l 1876.8594,-1027.375 0.032,-0.016 c 146.5393,-80.1891 243.636,-243.5801 244.0156,-410.625 a 127.9863,127.9863 0 0 0 0,-0.08 127.9863,127.9863 0 0 0 0,-0.2184 V 3066.125 a 127.9863,127.9863 0 0 0 0,-0.016 127.9863,127.9863 0 0 0 0,-0.016 127.9863,127.9863 0 0 0 0,-0.016 127.9863,127.9863 0 0 0 0,-0.016 c -0.064,-167.3469 -97.2384,-331.1895 -244.0468,-411.5156 l -1876.8594,-1026.9531 -0.08,-0.048 C 4252.9334,1589.5925 4174.4888,1569.5067 4096,1569.4062 Z m -43.8438,678.3907 A 438.21825,438.21825 0 0 1 4306.5,2299.4688 L 5333,2861.6562 a 131.44135,131.44135 0 0 1 0,230.5782 l -1026.5,562.1875 a 438.21825,438.21825 0 0 1 -421,0 L 2859,3092.2344 a 131.44135,131.44135 0 0 1 0,-230.5782 l 1026.5,-562.1874 a 438.21825,438.21825 0 0 1 166.6562,-51.6719 z m 1653.4219,1341.6562 a 142.18524,142.18524 0 0 1 139.7813,142.1719 V 4789.75 a 404.97245,404.97245 0 0 1 -210.5313,355.2344 L 4605.1562,5708.5938 A 142.2319,142.2319 0 0 1 4394.6406,5583.8281 V 4526.25 a 405.10535,405.10535 0 0 1 210.4844,-355.2969 l 1029.75,-564.0312 a 142.18524,142.18524 0 0 1 70.7031,-17.4688 z M 2510.9062,3591 a 142.2477,142.2477 0 0 1 46.2657,15.75 l 1029.6562,563.4688 a 404.92747,404.92747 0 0 1 210.5313,355.2187 v 1058.5 a 142.29424,142.29424 0 0 1 -210.5625,124.8437 L 2557.2031,5145.7188 A 404.79501,404.79501 0 0 1 2346.6406,4790.5625 V 3731.5312 A 142.2477,142.2477 0 0 1 2510.9062,3591 Z" />
    </clipPath>
    <filter
       inkscape:collect="always"
       style="color-interpolation-filters:sRGB"
       id="filter26"
       x="-0.011525162"
       y="-0.012515645"
       width="1.0230503"
       height="1.0250313">
      <feGaussianBlur
         inkscape:collect="always"
         stdDeviation="22.01096"
         id="feGaussianBlur26" />
    </filter>
  </defs>
  <sodipodi:namedview
     id="namedview1"
     pagecolor="#ffffff"
     bordercolor="#000000"
     borderopacity="0.25"
     inkscape:showpageshadow="2"
     inkscape:pageopacity="0.0"
     inkscape:pagecheckerboard="0"
     inkscape:deskcolor="#d1d1d1"
     inkscape:zoom="0.43472696"
     inkscape:cx="393.35035"
     inkscape:cy="431.30521"
     inkscape:window-width="2560"
     inkscape:window-height="1306"
     inkscape:window-x="0"
     inkscape:window-y="31"
     inkscape:window-maximized="1"
     inkscape:current-layer="svg1" />
  <g
     id="g26">
    <path
       id="rect6"
       style="baseline-shift:baseline;display:inline;overflow:visible;vector-effect:none;fill:url(#linearGradient8);fill-opacity:1;stroke-width:0.0149921;stroke-linecap:round;stroke-linejoin:round;enable-background:accumulate;stop-color:#000000"
       d="m 598.89038,8.0130363 h 39.9762 c 8.83656,0 23.94318,-0.2650837 30.97056,4.8481617 2.1464,1.561759 4.03682,3.452181 5.59858,5.598584 5.11323,7.027379 4.84815,22.13399 4.84815,30.970546 V 89.09403 c 0,8.836556 0.26508,23.94318 -4.84816,30.97056 -1.56176,2.1464 -3.45218,4.03682 -5.59859,5.59858 -7.02737,5.11323 -22.13398,4.84815 -30.97054,4.84815 h -39.9762 c -8.83656,0 -23.94318,0.26508 -30.97056,-4.84816 -2.14641,-1.56176 -4.03683,-3.45218 -5.59859,-5.59859 -5.11323,-7.02737 -4.84815,-22.133984 -4.84815,-30.97054 V 49.430328 c 0,-8.836556 -0.26508,-23.943179 4.84816,-30.970562 1.56176,-2.146404 3.45219,-4.036826 5.59859,-5.598584 7.02738,-5.1132307 22.13399,-4.8481457 30.97055,-4.8481457 z"
       transform="matrix(66.701695,0,0,66.701695,-37184.243,-533.8385)"
       inkscape:original-d="m 582.89038,8.0130363 h 71.9762 c 14.08117,0 25.41729,11.3361117 25.41729,25.4172917 v 71.663702 c 0,14.08117 -11.33612,25.41729 -25.41729,25.41729 h -71.9762 c -14.08118,0 -25.4173,-11.33612 -25.4173,-25.41729 V 33.430328 c 0,-14.08118 11.33612,-25.4172917 25.4173,-25.4172917 z"
       inkscape:path-effect="#path-effect7" />
    <path
       id="path8"
       style="baseline-shift:baseline;display:inline;overflow:visible;opacity:0.31215;mix-blend-mode:normal;vector-effect:none;fill:url(#linearGradient9);fill-opacity:1;stroke-width:0.0185357;stroke-linecap:round;stroke-linejoin:round;filter:url(#filter10);enable-background:accumulate;stop-color:#000000"
       d="m 598.89038,8.0130363 h 39.9762 c 8.83656,0 23.94318,-0.2650837 30.97056,4.8481617 2.1464,1.561759 4.03682,3.452181 5.59858,5.598584 5.11323,7.027379 4.84815,22.13399 4.84815,30.970546 V 89.09403 c 0,8.836556 0.26508,23.94318 -4.84816,30.97056 -1.56176,2.1464 -3.45218,4.03682 -5.59859,5.59858 -7.02737,5.11323 -22.13398,4.84815 -30.97054,4.84815 h -39.9762 c -8.83656,0 -23.94318,0.26508 -30.97056,-4.84816 -2.14641,-1.56176 -4.03683,-3.45218 -5.59859,-5.59859 -5.11323,-7.02737 -4.84815,-22.133984 -4.84815,-30.97054 V 49.430328 c 0,-8.836556 -0.26508,-23.943179 4.84816,-30.970562 1.56176,-2.146404 3.45219,-4.036826 5.59859,-5.598584 7.02738,-5.1132307 22.13399,-4.8481457 30.97055,-4.8481457 z"
       transform="matrix(53.950155,0,0,53.950155,-29292.589,349.36092)"
       inkscape:original-d="m 582.89038,8.0130363 h 71.9762 c 14.08117,0 25.41729,11.3361117 25.41729,25.4172917 v 71.663702 c 0,14.08117 -11.33612,25.41729 -25.41729,25.41729 h -71.9762 c -14.08118,0 -25.4173,-11.33612 -25.4173,-25.41729 V 33.430328 c 0,-14.08118 11.33612,-25.4172917 25.4173,-25.4172917 z"
       inkscape:path-effect="#path-effect9" />
    <path
       id="path21"
       style="baseline-shift:baseline;display:inline;overflow:visible;opacity:0.48;vector-effect:none;fill:#1a1a1a;fill-opacity:1;enable-background:accumulate;stop-color:#000000;stop-opacity:1;filter:url(#filter21)"
       d="m 4160,1633.4062 c -11.2169,-0.014 -22.4345,0.3792 -33.625,1.1876 -67.1417,4.8505 -133.1887,24.4594 -192.1094,57.0156 L 2057.375,2718.9844 c -146.5393,80.189 -243.6359,243.5801 -244.0156,410.625 a 127.9863,127.9863 0 0 0 0,0.2968 v 2040.3282 a 127.9863,127.9863 0 0 0 0,0.2812 c 0.3797,167.0531 97.4955,330.4557 244.0468,410.6406 l 1876.8594,1027.375 c 137.4827,75.9652 313.9861,75.9652 451.4688,0 l 1876.8594,-1027.375 0.031,-0.016 c 146.5393,-80.1891 243.6359,-243.5801 244.0156,-410.625 a 127.9863,127.9863 0 0 0 0,-0.078 127.9863,127.9863 0 0 0 0,-0.2187 V 3130.125 a 127.9863,127.9863 0 0 0 0,-0.016 127.9863,127.9863 0 0 0 0,-0.016 127.9863,127.9863 0 0 0 0,-0.016 127.9863,127.9863 0 0 0 0,-0.016 c -0.066,-167.3469 -97.2385,-331.1895 -244.0468,-411.5156 l -1876.8594,-1026.9531 -0.078,-0.047 C 4316.9334,1653.5925 4238.4888,1633.5067 4160,1633.4062 Z m -43.8438,678.3907 A 438.21825,438.21825 0 0 1 4370.5,2363.4688 L 5397,2925.6562 a 131.44135,131.44135 0 0 1 0,230.5782 l -1026.5,562.1875 a 438.21825,438.21825 0 0 1 -421,0 L 2923,3156.2344 a 131.44135,131.44135 0 0 1 0,-230.5782 l 1026.5,-562.1874 a 438.21825,438.21825 0 0 1 166.6562,-51.6719 z m 1653.4219,1341.6562 a 142.18524,142.18524 0 0 1 139.7813,142.1719 V 4853.75 a 404.97245,404.97245 0 0 1 -210.5313,355.2344 L 4669.1562,5772.5938 A 142.2319,142.2319 0 0 1 4458.6406,5647.8281 V 4590.25 a 405.10535,405.10535 0 0 1 210.4844,-355.2969 l 1029.75,-564.0312 a 142.18524,142.18524 0 0 1 70.7031,-17.4688 z M 2574.9062,3655 a 142.2477,142.2477 0 0 1 46.2657,15.75 l 1029.6562,563.4688 a 404.92747,404.92747 0 0 1 210.5313,355.2187 v 1058.5 a 142.29424,142.29424 0 0 1 -210.5625,124.8437 L 2621.2031,5209.7188 A 404.79501,404.79501 0 0 1 2410.6406,4854.5625 V 3795.5312 A 142.2477,142.2477 0 0 1 2574.9062,3655 Z" />
    <path
       id="path1"
       style="baseline-shift:baseline;display:inline;overflow:visible;opacity:1;vector-effect:none;fill:#a90826;fill-opacity:1;enable-background:accumulate;stop-color:#000000;stop-opacity:1"
       d="m 4096,1569.4062 c -11.2169,-0.014 -22.4345,0.3792 -33.625,1.1876 -67.1417,4.8505 -133.1887,24.4594 -192.1094,57.0156 L 1993.375,2654.9844 c -146.5393,80.189 -243.6359,243.5801 -244.0156,410.625 a 127.9863,127.9863 0 0 0 0,0.2968 v 2040.3282 a 127.9863,127.9863 0 0 0 0,0.2812 c 0.3797,167.0531 97.4955,330.4557 244.0468,410.6406 l 1876.8594,1027.375 c 137.4827,75.9652 313.9861,75.9652 451.4688,0 l 1876.8594,-1027.375 0.031,-0.016 c 146.5393,-80.1891 243.6359,-243.5801 244.0156,-410.625 a 127.9863,127.9863 0 0 0 0,-0.078 127.9863,127.9863 0 0 0 0,-0.2187 V 3066.125 a 127.9863,127.9863 0 0 0 0,-0.016 127.9863,127.9863 0 0 0 0,-0.016 127.9863,127.9863 0 0 0 0,-0.016 127.9863,127.9863 0 0 0 0,-0.016 c -0.066,-167.3469 -97.2385,-331.1895 -244.0468,-411.5156 l -1876.8594,-1026.9531 -0.078,-0.047 C 4252.9334,1589.5925 4174.4888,1569.5067 4096,1569.4062 Z m -43.8438,678.3907 A 438.21825,438.21825 0 0 1 4306.5,2299.4688 L 5333,2861.6562 a 131.44135,131.44135 0 0 1 0,230.5782 l -1026.5,562.1875 a 438.21825,438.21825 0 0 1 -421,0 L 2859,3092.2344 a 131.44135,131.44135 0 0 1 0,-230.5782 l 1026.5,-562.1874 a 438.21825,438.21825 0 0 1 166.6562,-51.6719 z m 1653.4219,1341.6562 a 142.18524,142.18524 0 0 1 139.7813,142.1719 V 4789.75 a 404.97245,404.97245 0 0 1 -210.5313,355.2344 L 4605.1562,5708.5938 A 142.2319,142.2319 0 0 1 4394.6406,5583.8281 V 4526.25 a 405.10535,405.10535 0 0 1 210.4844,-355.2969 l 1029.75,-564.0312 a 142.18524,142.18524 0 0 1 70.7031,-17.4688 z M 2510.9062,3591 a 142.2477,142.2477 0 0 1 46.2657,15.75 l 1029.6562,563.4688 a 404.92747,404.92747 0 0 1 210.5313,355.2187 v 1058.5 a 142.29424,142.29424 0 0 1 -210.5625,124.8437 L 2557.2031,5145.7188 A 404.79501,404.79501 0 0 1 2346.6406,4790.5625 V 3731.5312 A 142.2477,142.2477 0 0 1 2510.9062,3591 Z" />
    <path
       id="path22"
       style="baseline-shift:baseline;display:inline;overflow:visible;opacity:0.614286;mix-blend-mode:normal;vector-effect:none;fill:#ff0030;fill-opacity:1;filter:url(#filter24);enable-background:accumulate;stop-color:#000000;stop-opacity:1"
       d="m 4000,1473.4062 c -11.2169,-0.014 -22.4345,0.3792 -33.625,1.1876 -67.1417,4.8505 -133.1887,24.4594 -192.1094,57.0156 L 1897.375,2558.9844 c -146.5393,80.189 -243.6359,243.5801 -244.0156,410.625 a 127.9863,127.9863 0 0 0 0,0.2968 v 2040.3282 a 127.9863,127.9863 0 0 0 0,0.2812 c 0.3797,167.0531 97.4955,330.4557 244.0468,410.6406 l 1876.8594,1027.375 c 137.4827,75.9652 313.9861,75.9652 451.4688,0 l 1876.8594,-1027.375 0.031,-0.016 c 146.5393,-80.1891 243.6359,-243.5801 244.0156,-410.625 a 127.9863,127.9863 0 0 0 0,-0.078 127.9863,127.9863 0 0 0 0,-0.2187 V 2970.125 a 127.9863,127.9863 0 0 0 0,-0.016 127.9863,127.9863 0 0 0 0,-0.016 127.9863,127.9863 0 0 0 0,-0.016 127.9863,127.9863 0 0 0 0,-0.016 c -0.066,-167.3469 -97.2385,-331.1895 -244.0468,-411.5156 l -1876.8594,-1026.9531 -0.078,-0.047 C 4156.9334,1493.5925 4078.4888,1473.5067 4000,1473.4062 Z m -43.8438,678.3907 A 438.21825,438.21825 0 0 1 4210.5,2203.4688 L 5237,2765.6562 a 131.44135,131.44135 0 0 1 0,230.5782 l -1026.5,562.1875 a 438.21825,438.21825 0 0 1 -421,0 L 2763,2996.2344 a 131.44135,131.44135 0 0 1 0,-230.5782 l 1026.5,-562.1874 a 438.21825,438.21825 0 0 1 166.6562,-51.6719 z m 1653.4219,1341.6562 a 142.18524,142.18524 0 0 1 139.7813,142.1719 V 4693.75 a 404.97245,404.97245 0 0 1 -210.5313,355.2344 L 4509.1562,5612.5938 A 142.2319,142.2319 0 0 1 4298.6406,5487.8281 V 4430.25 a 405.10535,405.10535 0 0 1 210.4844,-355.2969 l 1029.75,-564.0312 a 142.18524,142.18524 0 0 1 70.7031,-17.4688 z M 2414.9062,3495 a 142.2477,142.2477 0 0 1 46.2657,15.75 l 1029.6562,563.4688 a 404.92747,404.92747 0 0 1 210.5313,355.2187 v 1058.5 a 142.29424,142.29424 0 0 1 -210.5625,124.8437 L 2461.2031,5049.7188 A 404.79501,404.79501 0 0 1 2250.6406,4694.5625 V 3635.5312 A 142.2477,142.2477 0 0 1 2414.9062,3495 Z"
       clip-path="url(#clipPath24)" />
    <path
       id="path25"
       style="baseline-shift:baseline;display:inline;overflow:visible;opacity:0.34571429;vector-effect:none;fill:#f9f9f9;fill-opacity:1;enable-background:accumulate;stop-color:#000000;stop-opacity:1;filter:url(#filter26)"
       d="M 4096 1569.4062 C 4084.7831 1569.3923 4073.5655 1569.7854 4062.375 1570.5938 C 3995.2333 1575.4443 3929.1863 1595.0532 3870.2656 1627.6094 L 1993.375 2654.9844 C 1846.8357 2735.1734 1749.7391 2898.5645 1749.3594 3065.6094 A 127.9863 127.9863 0 0 0 1749.3594 3065.9062 L 1749.3594 5106.2344 A 127.9863 127.9863 0 0 0 1749.3594 5106.5156 C 1749.6737 5244.8198 1816.9317 5379.8677 1923.0156 5468.0156 C 1854.7054 5384.5729 1813.6048 5278.4996 1813.3594 5170.5156 A 127.9863 127.9863 0 0 1 1813.3594 5170.2344 L 1813.3594 3129.9062 A 127.9863 127.9863 0 0 1 1813.3594 3129.6094 C 1813.7391 2962.5645 1910.8357 2799.1734 2057.375 2718.9844 L 3934.2656 1691.6094 C 3993.1863 1659.0532 4059.2333 1639.4443 4126.375 1634.5938 C 4137.5655 1633.7854 4148.7831 1633.3923 4160 1633.4062 C 4238.4888 1633.5067 4316.9335 1653.5941 4385.6562 1691.5469 L 4385.7344 1691.5938 L 6262.5938 2718.5469 C 6287.7879 2732.3319 6310.8912 2749.3251 6332.9219 2767.625 C 6295.568 2722.0075 6250.3893 2682.8868 6198.5938 2654.5469 L 4321.7344 1627.5938 L 4321.6562 1627.5469 C 4252.9335 1589.5941 4174.4888 1569.5067 4096 1569.4062 z M 5388.4219 2920.9688 A 131.44135 131.44135 0 0 1 5333 3092.2344 L 4306.5 3654.4219 A 438.21825 438.21825 0 0 1 3885.5 3654.4219 L 2870.4531 3098.5156 A 131.44135 131.44135 0 0 0 2923 3156.2344 L 3949.5 3718.4219 A 438.21825 438.21825 0 0 0 4370.5 3718.4219 L 5397 3156.2344 A 131.44135 131.44135 0 0 0 5397 2925.6562 L 5388.4219 2920.9688 z M 5829.9375 3668.625 A 142.18524 142.18524 0 0 1 5845.3594 3731.625 L 5845.3594 4789.75 A 404.97245 404.97245 0 0 1 5634.8281 5144.9844 L 4605.1562 5708.5938 A 142.2319 142.2319 0 0 1 4474.8906 5709.1719 A 142.2319 142.2319 0 0 0 4669.1562 5772.5938 L 5698.8281 5208.9844 A 404.97245 404.97245 0 0 0 5909.3594 4853.75 L 5909.3594 3795.625 A 142.18524 142.18524 0 0 0 5829.9375 3668.625 z M 3708.7969 4273.0781 A 404.92747 404.92747 0 0 1 3797.3594 4525.4375 L 3797.3594 5583.9375 A 142.29424 142.29424 0 0 1 3586.7969 5708.7812 L 2557.2031 5145.7188 A 404.79501 404.79501 0 0 1 2495.3281 5095.8125 A 404.79501 404.79501 0 0 0 2621.2031 5209.7188 L 3650.7969 5772.7812 A 142.29424 142.29424 0 0 0 3861.3594 5647.9375 L 3861.3594 4589.4375 A 404.92747 404.92747 0 0 0 3708.7969 4273.0781 z " />
  </g>
</svg>
